<svg xmlns="http://www.w3.org/2000/svg" viewBox="0 0 960 420" role="img" aria-label="Live-cell density over time">
<title>Live-cell density over time</title>
<rect width="100%" height="100%" fill="#f7f9fb"/>
<line x1="48.0" y1="372.0" x2="912.0" y2="372.0" stroke="#9aa6b2" stroke-width="2"/>
<line x1="48.0" y1="48.0" x2="48.0" y2="372.0" stroke="#9aa6b2" stroke-width="2"/>
<polyline points="48.00,93.26 51.38,48.00 54.75,106.85 58.12,104.85 61.50,119.33 64.88,126.03 68.25,130.52 71.62,140.01 75.00,142.51 78.38,154.60 81.75,161.99 85.12,168.89 88.50,175.08 91.88,179.38 95.25,191.87 98.62,190.67 102.00,189.87 105.38,193.67 108.75,198.56 112.12,206.45 115.50,209.95 118.88,218.14 122.25,223.34 125.62,223.44 129.00,226.83 132.38,227.13 135.75,230.33 139.12,233.43 142.50,232.63 145.88,234.23 149.25,233.73 152.62,239.52 156.00,232.73 159.38,240.42 162.75,235.03 166.12,239.02 169.50,237.52 172.88,243.12 176.25,243.32 179.62,246.42 183.00,242.02 186.38,249.01 189.75,249.91 193.12,254.11 196.50,252.01 199.88,255.01 203.25,255.21 206.62,250.21 210.00,250.01 213.38,250.71 216.75,250.81 220.12,254.81 223.50,254.91 226.88,250.11 230.25,257.21 233.62,255.81 237.00,253.71 240.38,251.51 243.75,253.61 247.12,246.72 250.50,254.31 253.88,253.01 257.25,256.11 260.62,259.20 264.00,257.41 267.38,255.51 270.75,259.20 274.12,257.91 277.50,261.90 280.88,260.70 284.25,260.00 287.62,260.70 291.00,265.70 294.38,260.90 297.75,260.10 301.12,264.10 304.50,267.00 307.88,264.00 311.25,264.30 314.62,262.00 318.00,264.60 321.38,265.40 324.75,267.10 328.12,266.20 331.50,263.10 334.88,262.90 338.25,269.79 341.62,267.20 345.00,272.09 348.38,270.59 351.75,274.29 355.12,274.09 358.50,274.69 361.88,275.09 365.25,278.19 368.62,274.09 372.00,276.39 375.38,273.19 378.75,274.89 382.12,274.29 385.50,270.39 388.88,274.09 392.25,275.09 395.62,276.69 399.00,278.39 402.38,275.09 405.75,273.89 409.12,276.39 412.50,275.59 415.88,274.49 419.25,277.89 422.62,278.29 426.00,275.59 429.38,277.69 432.75,278.09 436.12,279.59 439.50,278.89 442.88,274.09 446.25,278.99 449.62,277.69 453.00,280.48 456.38,280.19 459.75,275.39 463.12,277.69 466.50,274.99 469.88,279.29 473.25,271.09 476.62,277.29 480.00,275.59 483.38,274.49 486.75,272.99 490.12,274.59 493.50,276.89 496.88,277.29 500.25,274.49 503.62,273.89 507.00,273.59 510.38,275.29 513.75,273.09 517.12,272.89 520.50,269.49 523.88,268.20 527.25,272.39 530.62,266.30 534.00,272.59 537.38,271.79 540.75,271.09 544.12,270.89 547.50,273.39 550.88,274.69 554.25,278.49 557.62,273.89 561.00,277.19 564.38,273.49 567.75,276.89 571.12,274.49 574.50,278.89 577.88,277.69 581.25,275.89 584.62,277.29 588.00,280.58 591.38,285.48 594.75,284.68 598.12,287.28 601.50,288.08 604.88,288.68 608.25,291.87 611.62,287.08 615.00,289.88 618.38,286.68 621.75,289.58 625.12,291.27 628.50,288.78 631.88,287.48 635.25,290.08 638.62,290.08 642.00,290.88 645.38,289.48 648.75,288.68 652.12,284.98 655.50,286.48 658.88,284.48 662.25,285.28 665.62,280.28 669.00,282.28 672.38,279.99 675.75,281.38 679.12,275.29 682.50,279.09 685.88,277.99 689.25,274.89 692.62,277.49 696.00,272.69 699.38,279.09 702.75,275.19 706.12,279.09 709.50,282.18 712.88,281.28 716.25,281.18 719.62,283.78 723.00,280.09 726.38,280.68 729.75,281.78 733.12,283.18 736.50,282.98 739.88,286.58 743.25,284.48 746.62,285.18 750.00,284.48 753.38,284.88 756.75,283.78 760.12,287.98 763.50,286.88 766.88,289.28 770.25,286.58 773.62,286.58 777.00,286.48 780.38,287.08 783.75,283.48 787.12,287.18 790.50,286.18 793.88,285.28 797.25,289.38 800.62,289.88 804.00,286.68 807.38,290.88 810.75,289.58 814.12,290.18 817.50,291.67 820.88,292.47 824.25,288.08 827.62,287.48 831.00,285.28 834.38,288.98 837.75,286.78 841.12,291.07 844.50,290.98 847.88,293.77 851.25,295.77 854.62,295.87 858.00,297.37 861.38,294.67 864.75,296.87 868.12,292.47 871.50,298.47 874.88,295.47 878.25,295.67 881.62,295.77 885.00,297.07 888.38,300.07 891.75,297.47 895.12,302.16 898.50,303.86 901.88,303.96 905.25,304.66 908.62,302.96 912.00,303.76" fill="none" stroke="#167c80" stroke-width="4" stroke-linejoin="round" stroke-linecap="round"/>
<text x="48.0" y="28" fill="#1c2733" font-family="Menlo, monospace" font-size="18">Toroidal Game of Life density, 256 generations</text>
<text x="48.0" y="406.0" fill="#4c5967" font-family="Menlo, monospace" font-size="14">generation</text>
<text x="722.0" y="66.0" fill="#4c5967" font-family="Menlo, monospace" font-size="14">final density 0.074</text>
</svg>